<?xml version="1.0" encoding="UTF-8" standalone="no"?>
<svg xmlns:inkscape="http://www.inkscape.org/namespaces/inkscape" xmlns:sodipodi="http://sodipodi.sourceforge.net/DTD/sodipodi-0.dtd" xmlns="http://www.w3.org/2000/svg" xmlns:svg="http://www.w3.org/2000/svg" width="118" height="25" viewBox="0 0 118 25" fill="none" version="1.1" id="svg2825" sodipodi:docname="logo.svg" inkscape:version="1.2.2 (732a01da63, 2022-12-09)">
  
  <rect style="fill:#008184;fill-opacity:1;stroke:none;stroke-width:10" id="rect3521" width="51.25" height="25" x="0" y="0"/>
  <g clip-path="url(#clip0)" id="g2814" inkscape:label="g2814">
    <path fill-rule="evenodd" clip-rule="evenodd" d="M 51.25,12.5 C 51.25,5.60219 45.5773,0 38.6242,0 37.984,0 37.3261,0.0364964 36.6859,0.145985 31.2799,0.930657 27.6522,4.92701 25.625,7.9927 23.5978,4.92701 19.9701,0.930657 14.5641,0.145985 13.9239,0.0547445 13.266,0 12.6258,0 5.65493,0 0,5.60219 0,12.5 0,19.3978 5.67271,25 12.6258,25 c 0.6402,0 1.2981,-0.0365 1.9561,-0.146 5.406,-0.8029 9.0336,-4.7993 11.0609,-7.8649 2.0272,3.0656 5.6549,7.062 11.0609,7.8649 C 37.3439,24.9453 38.0018,25 38.6598,25 45.5773,25 51.25,19.3978 51.25,12.5 Z m -37.3084,7.9744 c -0.4445,0.073 -0.8891,0.0913 -1.3337,0.0913 -4.58794,0 -8.30454,-3.6314 -8.30454,-8.0657 0,-4.45256 3.73438,-8.0657 8.32234,-8.0657 0.4446,0 0.8891,0.0365 1.3337,0.09124 5.1037,0.74818 8.2157,5.91236 9.2826,7.97446 -1.0847,2.0803 -4.2145,7.2263 -9.3004,7.9744 z M 37.2905,4.52554 C 32.1868,5.27372 29.057,10.4379 28.0079,12.5 c 1.0491,2.062 4.1789,7.2263 9.2826,7.9744 0.4445,0.0548 0.8891,0.0913 1.3337,0.0913 4.5702,0 8.3045,-3.6132 8.3045,-8.0657 0,-4.43431 -3.7166,-8.0657 -8.3045,-8.0657 -0.4446,0 -0.8892,0.0365 -1.3337,0.09124 z M 9.06449,11.161 h 7.63591 v 2.4032 H 9.06449 Z m 33.08341,2.4207 h -2.5751 v 2.526 h -2.4679 v -2.526 H 34.5298 V 11.161 h 2.5751 V 8.63499 h 2.4679 V 11.161 h 2.5751 z" fill="#ffffff" id="path2812" inkscape:label="path2812"/>
  </g>
  <path d="M 55.599,6.65 V 19 h 3.059 v -4.427 h 5.225 v -2.47 H 58.658 V 9.139 h 5.681 V 6.65 Z M 73.0356,6.479 c -3.743,0 -5.168,2.755 -5.168,6.479 0,4.085 1.634,6.232 5.187,6.232 3.971,0 5.282,-2.793 5.282,-6.365 0,-4.712 -1.786,-6.346 -5.301,-6.346 z m 0.019,10.222 c -1.767,0 -1.938,-1.254 -1.938,-3.743 0,-3.021 0.285,-3.99 1.919,-3.99 1.805,0 2.052,0.836 2.052,3.857 0,2.85 -0.247,3.876 -2.033,3.876 z M 81.4662,19 h 3.059 v -3.914 h 1.539 L 87.926,19 h 3.61 l -2.413,-4.522 c 1.349,-0.722 2.033,-2.014 2.033,-3.705 0,-2.375 -1.292,-4.123 -4.7118,-4.123 h -4.978 z m 4.674,-6.365 h -1.615 V 9.139 h 1.558 c 1.4248,0 1.8238,0.551 1.8238,1.653 0,1.368 -0.703,1.843 -1.7668,1.843 z m 15.1758,1.558 c 0,1.881 -0.513,2.508 -1.9,2.508 -1.159,0 -1.881,-0.475 -1.881,-2.527 V 6.65 h -3.059 v 8.094 c 0,3.743 2.698,4.446 4.807,4.446 2.185,0 4.978,-0.779 4.978,-4.427 V 6.65 h -2.945 z M 115.161,19 h 2.47 V 6.65 h -2.508 l -2.546,5.111 -2.546,-5.111 H 107.39 V 19 h 2.413 v -7.847 l 1.729,3.667 h 2.071 l 1.558,-3.306 z" fill="#008184" id="path2818"/>
  <defs id="defs2823">
    <clipPath id="clip0">
      <rect width="51.25" height="25" fill="#ffffff" id="rect2820" x="0" y="0"/>
    </clipPath>
  </defs>
</svg>
